<svg width="19" height="19" viewBox="0 0 19 19" fill="none" xmlns="http://www.w3.org/2000/svg">
    <path d="M9.5 0.25C14.457 0.25 18.5 4.29297 18.5 9.25C18.5 14.2422 14.457 18.25 9.5 18.25C7.63672 18.25 5.94922 17.7227 4.50781 16.7734C4.12109 16.5273 4.01562 16 4.26172 15.6133C4.54297 15.2266 5.07031 15.1211 5.45703 15.3672C6.61719 16.1406 7.98828 16.5625 9.5 16.5625C13.5078 16.5625 16.8125 13.293 16.8125 9.25C16.8125 5.24219 13.5078 1.9375 9.5 1.9375C6.89844 1.9375 4.61328 3.30859 3.3125 5.3125H5.28125C5.73828 5.3125 6.125 5.69922 6.125 6.15625C6.125 6.64844 5.73828 7 5.28125 7H1.34375C0.851562 7 0.5 6.64844 0.5 6.15625V2.21875C0.5 1.76172 0.851562 1.375 1.34375 1.375C1.80078 1.375 2.1875 1.76172 2.1875 2.21875V4.01172C3.80469 1.76172 6.47656 0.25 9.5 0.25ZM9.5 4.75C9.95703 4.75 10.3438 5.13672 10.3438 5.59375V8.93359L12.5938 11.1836C12.9453 11.5352 12.9453 12.0625 12.5938 12.3789C12.2773 12.7305 11.75 12.7305 11.4336 12.3789L8.90234 9.84766C8.72656 9.70703 8.65625 9.49609 8.65625 9.25V5.59375C8.65625 5.13672 9.00781 4.75 9.5 4.75Z"
          />
</svg>
