<svg width="17" height="19" viewBox="0 0 17 19" fill="none" xmlns="http://www.w3.org/2000/svg">
    <path d="M15.707 3.55469L13.0703 0.917969C12.6484 0.496094 12.0859 0.25 11.4883 0.25H6.25C4.98438 0.25 4 1.26953 4 2.5V12.625C4 13.8906 4.98438 14.875 6.25 14.875H14.125C15.3555 14.875 16.375 13.8906 16.375 12.625V5.13672C16.375 4.53906 16.1289 3.97656 15.707 3.55469ZM14.6875 12.625C14.6875 12.9414 14.4062 13.1875 14.125 13.1875H6.25C5.93359 13.1875 5.6875 12.9414 5.6875 12.625V2.53516C5.6875 2.21875 5.93359 1.97266 6.25 1.97266H10.75V4.75C10.75 5.38281 11.2422 5.875 11.875 5.875H14.6523V12.625H14.6875ZM12.1562 18.25H4.84375C2.48828 18.25 0.625 16.3867 0.625 14.0312V4.46875C0.625 4.01172 0.976562 3.625 1.46875 3.625C1.92578 3.625 2.3125 4.01172 2.3125 4.46875V14.0312C2.3125 15.4375 3.4375 16.5625 4.84375 16.5625H12.1562C12.6133 16.5625 13 16.9492 13 17.4062C13 17.8984 12.6133 18.25 12.1562 18.25Z"
          />
</svg>
