<svg width="19" height="14" viewBox="0 0 19 14" fill="none" xmlns="http://www.w3.org/2000/svg">
    <path d="M17.6562 10.3438C18.1133 10.3438 18.5 10.7305 18.5 11.1875C18.5 11.6797 18.1133 12.0312 17.6562 12.0312H5.98438C5.63281 13.1914 4.54297 14 3.3125 14C1.73047 14 0.5 12.7695 0.5 11.1875C0.5 9.64062 1.73047 8.375 3.3125 8.375C4.54297 8.375 5.63281 9.21875 5.98438 10.3438H17.6562ZM2.1875 11.1875C2.1875 11.8203 2.67969 12.3125 3.3125 12.3125C3.91016 12.3125 4.4375 11.8203 4.4375 11.1875C4.4375 10.5898 3.91016 10.0625 3.3125 10.0625C2.67969 10.0625 2.1875 10.5898 2.1875 11.1875ZM12.9805 2.46875C13.332 1.34375 14.4219 0.5 15.6875 0.5C17.2344 0.5 18.5 1.76562 18.5 3.3125C18.5 4.89453 17.2344 6.125 15.6875 6.125C14.4219 6.125 13.332 5.31641 12.9805 4.15625H1.34375C0.851562 4.15625 0.5 3.80469 0.5 3.3125C0.5 2.85547 0.851562 2.46875 1.34375 2.46875H12.9805ZM15.6875 4.4375C16.2852 4.4375 16.8125 3.94531 16.8125 3.3125C16.8125 2.71484 16.2852 2.1875 15.6875 2.1875C15.0547 2.1875 14.5625 2.71484 14.5625 3.3125C14.5625 3.94531 15.0547 4.4375 15.6875 4.4375Z"
    />
</svg>
