<svg width="14" height="12" viewBox="0 0 14 12" fill="none" xmlns="http://www.w3.org/2000/svg">
    <path d="M0.4375 1.45312C0.4375 1.07227 0.730469 0.75 1.14062 0.75H12.8594C13.2402 0.75 13.5625 1.07227 13.5625 1.45312C13.5625 1.86328 13.2402 2.15625 12.8594 2.15625H1.14062C0.730469 2.15625 0.4375 1.86328 0.4375 1.45312ZM0.4375 6.14062C0.4375 5.75977 0.730469 5.4375 1.14062 5.4375H12.8594C13.2402 5.4375 13.5625 5.75977 13.5625 6.14062C13.5625 6.55078 13.2402 6.84375 12.8594 6.84375H1.14062C0.730469 6.84375 0.4375 6.55078 0.4375 6.14062ZM12.8594 11.5312H1.14062C0.730469 11.5312 0.4375 11.2383 0.4375 10.8281C0.4375 10.4473 0.730469 10.125 1.14062 10.125H12.8594C13.2402 10.125 13.5625 10.4473 13.5625 10.8281C13.5625 11.2383 13.2402 11.5312 12.8594 11.5312Z"
          fill="#ACBDD3" fill-opacity="0.75"/>
</svg>
