<svg width="16" height="16" viewBox="0 0 16 16" fill="none" xmlns="http://www.w3.org/2000/svg">
    <path d="M10.5781 7.67188C10.959 7.67188 11.2812 7.99414 11.2812 8.375C11.2812 8.78516 10.959 9.07812 10.5781 9.07812H5.42188C5.01172 9.07812 4.71875 8.78516 4.71875 8.375C4.71875 7.99414 5.01172 7.67188 5.42188 7.67188H10.5781ZM15.5 8.375C15.5 12.5352 12.1309 15.875 8 15.875C3.83984 15.875 0.5 12.5352 0.5 8.375C0.5 4.24414 3.83984 0.875 8 0.875C12.1309 0.875 15.5 4.24414 15.5 8.375ZM8 2.28125C4.63086 2.28125 1.90625 5.03516 1.90625 8.375C1.90625 11.7441 4.63086 14.4688 8 14.4688C11.3398 14.4688 14.0938 11.7441 14.0938 8.375C14.0938 5.03516 11.3398 2.28125 8 2.28125Z"
    />
</svg>
