<svg width="19" height="19" viewBox="0 0 19 19" fill="none" xmlns="http://www.w3.org/2000/svg">
    <path d="M6.125 9.25C6.125 9.88281 5.59766 10.375 5 10.375C4.36719 10.375 3.875 9.88281 3.875 9.25C3.875 8.65234 4.36719 8.125 5 8.125C5.59766 8.125 6.125 8.65234 6.125 9.25ZM5 5.875C5 5.27734 5.49219 4.75 6.125 4.75C6.72266 4.75 7.25 5.27734 7.25 5.875C7.25 6.50781 6.72266 7 6.125 7C5.49219 7 5 6.50781 5 5.875ZM10.625 4.75C10.625 5.38281 10.0977 5.875 9.5 5.875C8.86719 5.875 8.375 5.38281 8.375 4.75C8.375 4.15234 8.86719 3.625 9.5 3.625C10.0977 3.625 10.625 4.15234 10.625 4.75ZM11.75 5.875C11.75 5.27734 12.2422 4.75 12.875 4.75C13.4727 4.75 14 5.27734 14 5.875C14 6.50781 13.4727 7 12.875 7C12.2422 7 11.75 6.50781 11.75 5.875ZM16.0039 11.5H12.5938C11.6445 11.5 10.9062 12.2734 10.9062 13.1875C10.9062 13.3281 10.9062 13.4336 10.9414 13.5391C11.0117 13.9258 11.1523 14.2422 11.293 14.5938C11.5039 15.0859 11.75 15.5781 11.75 16.0703C11.75 17.1953 10.9766 18.2148 9.85156 18.25C9.74609 18.25 9.60547 18.25 9.5 18.25C4.50781 18.25 0.5 14.2422 0.5 9.25C0.5 4.29297 4.50781 0.25 9.5 0.25C14.457 0.25 18.5 4.29297 18.5 9.25C18.5 9.28516 18.4648 9.32031 18.4648 9.35547C18.4648 10.6562 17.3047 11.5 16.0039 11.5ZM16.7773 9.35547C16.7773 9.32031 16.8125 9.28516 16.8125 9.25C16.8125 5.24219 13.5078 1.9375 9.5 1.9375C5.45703 1.9375 2.1875 5.24219 2.1875 9.25C2.1875 13.293 5.45703 16.5625 9.5 16.5625C9.57031 16.5625 9.67578 16.5625 9.78125 16.5625C9.81641 16.5625 9.81641 16.5625 9.85156 16.5625C9.85156 16.5625 9.88672 16.5273 9.92188 16.4922C9.99219 16.4219 10.0625 16.2812 10.0625 16.0703C10.0625 16.0352 10.0273 15.8945 9.85156 15.4727C9.81641 15.4375 9.81641 15.4023 9.78125 15.332C9.64062 14.9805 9.39453 14.4531 9.28906 13.8906C9.21875 13.6797 9.21875 13.4336 9.21875 13.1875C9.21875 11.3242 10.6953 9.8125 12.5938 9.8125H16.0039C16.2852 9.8125 16.4961 9.74219 16.6367 9.63672C16.7773 9.53125 16.7773 9.42578 16.7773 9.35547Z"
    />
</svg>
