<svg width="14" height="13" viewBox="0 0 14 13" fill="none" xmlns="http://www.w3.org/2000/svg">
    <path d="M13.0938 6.375C13.0938 6.78516 12.7715 7.07812 12.3906 7.07812H7.70312V11.7656C7.70312 12.1758 7.38086 12.498 7 12.498C6.58984 12.498 6.29688 12.1758 6.29688 11.7656V7.07812H1.60938C1.19922 7.07812 0.90625 6.78516 0.90625 6.4043C0.90625 5.99414 1.19922 5.67188 1.60938 5.67188H6.29688V0.984375C6.29688 0.603516 6.58984 0.310547 7 0.310547C7.38086 0.310547 7.70312 0.603516 7.70312 0.984375V5.67188H12.3906C12.7715 5.67188 13.0938 5.99414 13.0938 6.375Z"
          fill="#ACBDD3"/>
</svg>
